<svg xmlns="http://www.w3.org/2000/svg" viewBox="0 0 69.55 66.6"><defs><style>.cls-1{fill:orange;}.cls-2{fill:#009ffd;}</style></defs><g id="Layer_2" data-name="Layer 2"><g id="Layer_1-2" data-name="Layer 1"><path class="cls-1" d="M26.24,66.6A26.17,26.17,0,0,1,0,40.27a26.43,26.43,0,1,1,52.85-.1A26.12,26.12,0,0,1,26.24,66.6Zm23.23-26A22.91,22.91,0,0,0,27.11,17.37c-12.95-.18-23.43,9.68-23.72,22.3A23.19,23.19,0,0,0,26.47,63.25,23.18,23.18,0,0,0,49.47,40.56Z"/><path class="cls-2" d="M42.94,52.88A26.17,26.17,0,0,1,16.7,26.54a26.43,26.43,0,1,1,52.85-.09A26.13,26.13,0,0,1,42.94,52.88ZM66.16,26.83A22.89,22.89,0,0,0,43.81,3.65c-13-.18-23.44,9.67-23.72,22.3a23,23,0,1,0,46.07.88Z"/></g></g></svg>